<?xml version="1.0" encoding="utf-8"?>
<!-- Generator: Adobe Illustrator 16.0.0, SVG Export Plug-In . SVG Version: 6.00 Build 0)  -->
<!DOCTYPE svg PUBLIC "-//W3C//DTD SVG 1.1//EN" "http://www.w3.org/Graphics/SVG/1.1/DTD/svg11.dtd">
<svg version="1.1" id="Layer_1" xmlns="http://www.w3.org/2000/svg" xmlns:xlink="http://www.w3.org/1999/xlink" x="0px" y="0px"
	 width="5000px" height="5000px" viewBox="0 0 5000 5000" enable-background="new 0 0 5000 5000" xml:space="preserve">
<g>
	<path fill="#3851A2" d="M650.203,650.192v1427.116h389.679l0.026-4.954l27.136-20.986c3.361-2.6,6.909-4.876,10.622-6.82
		c8.425-4.565,16.944-7.587,58.629-14.096c21.856-3.413,59.005-8.578,111.856-13.805c88.547-8.758,239.176-19.356,453.925-20.109
		l0.247-0.001l0.247,0.001c214.759,0.753,365.391,11.351,453.938,20.109c52.853,5.228,90,10.393,111.856,13.806
		c41.434,6.469,50.104,9.495,58.481,14.017c2.539,1.321,4.988,2.817,7.362,4.446c40.237-10.984,96.115-21.073,165.639-21.073
		c69.581,0,125.499,10.154,165.76,21.208c2.37-1.63,4.826-3.134,7.373-4.466c8.616-4.697,16.869-7.601,58.686-14.131
		c21.852-3.413,58.994-8.578,111.845-13.806c88.541-8.758,239.167-19.356,453.936-20.109l0.246-0.001l0.247,0.001
		c214.75,0.753,365.38,11.351,453.928,20.109c52.85,5.228,89.999,10.393,111.857,13.805c42.495,6.635,50.468,9.629,59.062,14.329
		c2.537,1.35,5.002,2.857,7.381,4.515l30.137,20.996v7.016h389.507V650.192H650.203z M2263.822,1604.878h-856.189l-425.716,212.91
		l-78.672-157.307l444.288-222.198c12.213-6.108,25.681-9.288,39.336-9.288h876.953V1604.878z"/>
	<path fill="#3851A2" d="M3958.793,2218.014c-1.655,61.193-5.089,140.063-12.169,217.905
		c-7.351,80.823-17.49,146.805-30.138,196.112c-8.387,32.698-17.928,58.666-29.167,79.387c-17.595,32.438-40.594,53.572-68.4,62.876
		c-2.122,0.772-4.273,1.44-6.481,2.013l-0.736,0.188c-0.042,0.01-0.082,0.02-0.124,0.03l-0.752,0.187
		c-25.892,6.39-50.459,11.112-77.215,14.844c-1.393,0.203-2.767,0.396-4.156,0.59l-3.944,0.558l-1.429,0.146
		c-1.445,0.146-2.991,0.325-4.484,0.501l-0.164,0.02c-29.08,3.36-61.269,5.654-101.302,7.221c-1.791,0.075-3.629,0.125-5.477,0.17
		c-5.579,0.214-11.28,0.393-17.597,0.586l-0.212,0.007c-69.544,1.926-160.093,1.926-297.154,1.926
		c-137.045,0-227.582,0-297.149-1.926l-0.223-0.007c-5.77-0.178-11.73-0.361-17.581-0.585c-1.866-0.046-3.707-0.096-5.577-0.173
		c-40.043-1.571-72.217-3.865-101.238-7.219l-0.266-0.031c-1.395-0.166-2.85-0.336-4.244-0.475l-1.585-0.158l-1.577-0.229
		c-1.002-0.146-1.986-0.282-2.971-0.42c-1.146-0.16-2.292-0.32-3.456-0.489c-26.403-3.684-50.69-8.332-76.231-14.594l-0.505-0.069
		l-1.152-0.339c-0.088-0.021-0.177-0.044-0.265-0.065l-1.336-0.331l-1.322-0.383c-1.548-0.449-3.086-0.952-4.609-1.51
		c-27.782-9.313-50.762-30.442-68.343-62.859c-11.238-20.721-20.778-46.688-29.164-79.387
		c-12.644-49.302-22.782-115.283-30.132-196.11c-8.299-91.26-11.595-184.707-12.892-248.881
		c-29.513-8.753-75.855-18.489-136.026-18.489c-59.908,0-106.129,9.593-135.69,18.272c-1.285,64.154-4.573,157.624-12.892,249.099
		c-7.351,80.828-17.492,146.812-30.142,196.116c-8.39,32.701-17.935,58.671-29.179,79.393
		c-17.545,32.333-40.458,53.434-68.151,62.78c-1.614,0.594-3.251,1.129-4.923,1.61l-2.53,0.678
		c-0.106,0.025-0.213,0.053-0.319,0.078l-0.938,0.232c-25.712,6.33-50.154,11.022-76.763,14.74c-1.389,0.204-2.763,0.396-4.151,0.59
		l-4.049,0.574l-1.516,0.151c-1.412,0.14-2.876,0.312-4.297,0.48l-0.219,0.026c-29.073,3.357-61.26,5.651-101.296,7.22
		c-1.832,0.076-3.652,0.126-5.5,0.171c-5.577,0.212-11.273,0.392-17.583,0.585l-0.218,0.007
		c-69.567,1.926-160.111,1.926-297.167,1.926s-227.6,0-297.155-1.926l-0.225-0.007c-5.797-0.179-11.785-0.364-17.583-0.585
		c-1.886-0.046-3.744-0.097-5.614-0.176c-39.976-1.567-72.13-3.861-101.174-7.215l-0.295-0.035c-1.38-0.165-2.829-0.334-4.215-0.472
		l-1.546-0.153l-1.538-0.222c-0.93-0.134-1.84-0.261-2.746-0.388c-1.278-0.179-2.548-0.357-3.839-0.545
		c-26.72-3.731-51.223-8.438-76.997-14.792l-0.3-0.047l-0.58-0.171c-0.069-0.017-0.137-0.034-0.207-0.051l-1.62-0.423
		c-1.932-0.528-3.818-1.128-5.678-1.809c-27.766-9.319-50.734-30.442-68.31-62.844c-11.24-20.721-20.781-46.689-29.168-79.389
		c-12.646-49.304-22.785-115.285-30.135-196.112c-7.052-77.553-10.491-156.566-12.158-217.904H650.203v2131.793h3699.607V2218.014
		H3958.793z M3654.82,3850.597c-15.708,12.844-35.374,19.86-55.665,19.86h-907.169v-175.883h875.794l423.414-346.197l111.33,136.162
		L3654.82,3850.597z"/>
	<path fill="#3851A2" d="M1702.323,2137.244c-199.632,0.708-340.934,10.118-424.323,17.889
		c-40.757,3.799-73.081,7.681-97.137,10.994c0.862,54.546,3.296,139.855,10.066,226.285
		c13.754,175.617,36.154,234.098,44.777,250.712c16.57,3.727,32.869,6.668,50.352,9.104l0.467,0.066
		c1.076,0.158,2.134,0.305,3.197,0.454c0.618,0.086,1.238,0.173,1.864,0.262c1.586,0.167,3.301,0.361,5.271,0.597
		c25.433,2.933,54.218,4.961,90.567,6.385l0.213,0.008c1.192,0.051,2.376,0.075,3.583,0.104l1.046,0.032
		c5.38,0.209,11.238,0.39,16.91,0.565c67.596,1.868,157.336,1.867,293.145,1.867c135.784,0,225.526,0,293.13-1.867
		c6.399-0.196,11.717-0.363,16.947-0.565l1.036-0.032c1.206-0.029,2.39-0.054,3.583-0.104l0.213-0.009
		c36.371-1.425,65.169-3.455,90.612-6.39c1.73-0.205,3.499-0.408,5.24-0.593c0.545-0.077,1.087-0.152,1.626-0.228
		c1.12-0.156,2.227-0.311,3.348-0.476l0.542-0.078c17.466-2.434,33.762-5.375,50.346-9.104
		c8.623-16.603,31.034-75.074,44.79-250.711c6.771-86.456,9.202-171.75,10.062-226.287c-24.057-3.313-56.377-7.195-97.141-10.994
		C2043.268,2147.362,1901.963,2137.952,1702.323,2137.244z"/>
	<path fill="#3851A2" d="M3297.691,2137.244c-199.631,0.708-340.923,10.116-424.302,17.886c-40.776,3.8-73.106,7.684-97.164,10.998
		c0.868,54.598,3.308,139.967,10.068,226.284c13.754,175.605,36.148,234.095,44.772,250.714c16.602,3.731,32.896,6.673,50.343,9.103
		l0.409,0.059c0.994,0.145,1.971,0.28,2.945,0.417c0.736,0.103,1.473,0.206,2.214,0.312c2,0.211,3.864,0.43,5.226,0.592
		c25.054,2.891,54.687,4.979,90.581,6.386l0.18,0.007c1.218,0.051,2.415,0.076,3.633,0.105l1.043,0.032
		c5.463,0.212,11.32,0.393,16.985,0.567c67.601,1.866,157.318,1.865,293.066,1.865c135.831,0,225.581,0.001,293.168-1.868
		c6.161-0.189,11.689-0.363,16.886-0.564l1.046-0.032c1.183-0.028,2.36-0.052,3.503-0.101l0.284-0.013
		c36.413-1.424,65.235-3.457,90.705-6.4c1.689-0.198,3.422-0.396,5.097-0.575c0.546-0.077,1.087-0.152,1.625-0.228
		c1.144-0.159,2.273-0.316,3.421-0.485l0.533-0.076c17.463-2.43,33.762-5.371,50.357-9.104
		c8.626-16.621,31.025-75.11,44.779-250.709c6.803-86.85,9.221-171.924,10.064-226.286c-24.055-3.313-56.373-7.194-97.118-10.992
		C3638.649,2147.363,3497.34,2137.952,3297.691,2137.244z"/>
</g>
</svg>
